<svg xmlns="http://www.w3.org/2000/svg" xmlns:xlink="http://www.w3.org/1999/xlink" width="500" zoomAndPan="magnify" viewBox="0 0 375 63.749997" height="85" preserveAspectRatio="xMidYMid meet" version="1.0"><defs><g/><clipPath id="b9690763e0"><path d="M 2 0 L 66.476562 0 L 66.476562 63.5 L 2 63.5 Z M 2 0 " clip-rule="nonzero"/></clipPath></defs><g clip-path="url(#b9690763e0)"><path fill="#e5e7eb" d="M 66.203125 31.75 C 66.203125 49.320312 51.949219 63.5 34.285156 63.5 C 16.621094 63.5 2.367188 49.320312 2.367188 31.75 C 2.367188 14.183594 16.621094 0 34.285156 0 C 51.949219 0 66.203125 14.183594 66.203125 31.75 Z M 14.707031 31.75 C 14.707031 42.546875 23.433594 51.222656 34.285156 51.222656 C 45.136719 51.222656 53.863281 42.546875 53.863281 31.75 C 53.863281 20.957031 45.136719 12.277344 34.285156 12.277344 C 23.433594 12.277344 14.707031 20.957031 14.707031 31.75 Z M 14.707031 31.75 " fill-opacity="1" fill-rule="nonzero"/><path fill="#5750f1" d="M 57.90625 21.378906 C 61.097656 20.109375 64.714844 21.378906 65.566406 24.765625 C 66.628906 29.632812 66.628906 34.714844 65.355469 39.582031 C 63.652344 46.355469 59.609375 52.492188 53.863281 56.9375 C 48.117188 61.171875 41.308594 63.5 34.074219 63.5 C 27.050781 63.5 20.027344 60.960938 14.496094 56.726562 C 8.960938 52.28125 4.917969 46.144531 3.214844 39.371094 C 1.515625 32.386719 2.152344 25.1875 5.132812 18.839844 C 8.109375 12.488281 13.21875 7.195312 19.390625 3.808594 C 24.070312 1.269531 28.964844 0 33.859375 0 C 37.265625 0 39.605469 3.175781 38.964844 6.5625 C 38.328125 9.949219 35.136719 12.066406 31.730469 12.488281 C 29.605469 12.699219 27.261719 13.546875 25.347656 14.605469 C 21.515625 16.511719 18.324219 19.898438 16.621094 23.707031 C 14.921875 27.730469 14.496094 32.171875 15.347656 36.40625 C 16.410156 40.640625 18.75 44.449219 22.15625 46.992188 C 25.558594 49.742188 29.816406 51.222656 34.074219 51.222656 C 38.328125 51.222656 42.585938 49.742188 46.203125 47.203125 C 49.605469 44.449219 52.160156 40.851562 53.222656 36.617188 C 53.863281 34.503906 53.863281 32.171875 53.648438 29.84375 C 53.4375 26.457031 54.714844 22.859375 57.90625 21.378906 Z M 57.90625 21.378906 " fill-opacity="1" fill-rule="nonzero"/></g><g fill="#ffffff" fill-opacity="1"><g transform="translate(74.366285, 48.824894)"><g><path d="M 3.40625 0 C 2.914062 0 2.671875 -0.25 2.671875 -0.75 L 2.671875 -29.875 C 2.671875 -30.363281 2.914062 -30.609375 3.40625 -30.609375 L 8.09375 -30.609375 C 8.582031 -30.609375 8.828125 -30.363281 8.828125 -29.875 L 8.828125 -17.9375 C 8.828125 -17.8125 8.863281 -17.734375 8.9375 -17.703125 C 9.007812 -17.679688 9.078125 -17.710938 9.140625 -17.796875 L 19.109375 -30.171875 C 19.316406 -30.460938 19.625 -30.609375 20.03125 -30.609375 L 25.328125 -30.609375 C 25.523438 -30.609375 25.679688 -30.570312 25.796875 -30.5 C 25.921875 -30.425781 25.984375 -30.316406 25.984375 -30.171875 C 25.984375 -30.054688 25.910156 -29.898438 25.765625 -29.703125 L 16.21875 -17.53125 C 16.132812 -17.445312 16.132812 -17.332031 16.21875 -17.1875 L 26.328125 -0.875 C 26.410156 -0.757812 26.453125 -0.628906 26.453125 -0.484375 C 26.453125 -0.160156 26.25 0 25.84375 0 L 20.5625 0 C 20.175781 0 19.882812 -0.160156 19.6875 -0.484375 L 12.03125 -12.90625 C 12 -12.988281 11.9375 -13.03125 11.84375 -13.03125 C 11.757812 -13.03125 11.691406 -12.988281 11.640625 -12.90625 L 8.96875 -9.484375 C 8.875 -9.367188 8.828125 -9.269531 8.828125 -9.1875 L 8.828125 -0.75 C 8.828125 -0.25 8.582031 0 8.09375 0 Z M 3.40625 0 "/></g></g></g><g fill="#ffffff" fill-opacity="1"><g transform="translate(101.746622, 48.824894)"><g><path d="M 5.6875 -24.625 C 4.582031 -24.625 3.675781 -24.960938 2.96875 -25.640625 C 2.269531 -26.328125 1.921875 -27.210938 1.921875 -28.296875 C 1.921875 -29.378906 2.269531 -30.257812 2.96875 -30.9375 C 3.675781 -31.625 4.582031 -31.96875 5.6875 -31.96875 C 6.820312 -31.96875 7.734375 -31.628906 8.421875 -30.953125 C 9.109375 -30.285156 9.453125 -29.398438 9.453125 -28.296875 C 9.453125 -27.191406 9.109375 -26.300781 8.421875 -25.625 C 7.734375 -24.957031 6.820312 -24.625 5.6875 -24.625 Z M 3.375 0 C 2.875 0 2.625 -0.25 2.625 -0.75 L 2.625 -21.734375 C 2.625 -22.234375 2.875 -22.484375 3.375 -22.484375 L 8.046875 -22.484375 C 8.546875 -22.484375 8.796875 -22.234375 8.796875 -21.734375 L 8.796875 -0.75 C 8.796875 -0.25 8.546875 0 8.046875 0 Z M 3.375 0 "/></g></g></g><g fill="#ffffff" fill-opacity="1"><g transform="translate(113.11865, 48.824894)"><g><path d="M 3.109375 0 C 2.609375 0 2.359375 -0.25 2.359375 -0.75 L 2.359375 -29.875 C 2.359375 -30.363281 2.609375 -30.609375 3.109375 -30.609375 L 7.78125 -30.609375 C 8.28125 -30.609375 8.53125 -30.363281 8.53125 -29.875 L 8.53125 -0.75 C 8.53125 -0.25 8.28125 0 7.78125 0 Z M 3.109375 0 "/></g></g></g><g fill="#ffffff" fill-opacity="1"><g transform="translate(124.009557, 48.824894)"><g><path d="M 3.109375 0 C 2.609375 0 2.359375 -0.25 2.359375 -0.75 L 2.359375 -29.875 C 2.359375 -30.363281 2.609375 -30.609375 3.109375 -30.609375 L 7.78125 -30.609375 C 8.28125 -30.609375 8.53125 -30.363281 8.53125 -29.875 L 8.53125 -0.75 C 8.53125 -0.25 8.28125 0 7.78125 0 Z M 3.109375 0 "/></g></g></g><g fill="#ffffff" fill-opacity="1"><g transform="translate(134.900463, 48.824894)"><g><path d="M 13.421875 0.34375 C 11.148438 0.34375 9.15625 -0.0976562 7.4375 -0.984375 C 5.71875 -1.867188 4.390625 -3.113281 3.453125 -4.71875 C 2.523438 -6.320312 2.0625 -8.175781 2.0625 -10.28125 L 2.0625 -20.375 C 2.0625 -22.476562 2.523438 -24.332031 3.453125 -25.9375 C 4.390625 -27.539062 5.71875 -28.78125 7.4375 -29.65625 C 9.15625 -30.53125 11.148438 -30.96875 13.421875 -30.96875 C 15.671875 -30.96875 17.644531 -30.550781 19.34375 -29.71875 C 21.050781 -28.882812 22.378906 -27.703125 23.328125 -26.171875 C 24.273438 -24.640625 24.75 -22.867188 24.75 -20.859375 C 24.75 -20.597656 24.515625 -20.4375 24.046875 -20.375 L 19.375 -20.078125 L 19.203125 -20.078125 C 18.796875 -20.078125 18.59375 -20.148438 18.59375 -20.296875 L 18.59375 -20.5625 C 18.59375 -22.101562 18.117188 -23.335938 17.171875 -24.265625 C 16.222656 -25.203125 14.972656 -25.671875 13.421875 -25.671875 C 11.847656 -25.671875 10.585938 -25.203125 9.640625 -24.265625 C 8.691406 -23.335938 8.21875 -22.101562 8.21875 -20.5625 L 8.21875 -10.015625 C 8.21875 -8.492188 8.691406 -7.265625 9.640625 -6.328125 C 10.585938 -5.398438 11.847656 -4.9375 13.421875 -4.9375 C 14.972656 -4.9375 16.222656 -5.398438 17.171875 -6.328125 C 18.117188 -7.265625 18.59375 -8.492188 18.59375 -10.015625 C 18.59375 -10.160156 18.65625 -10.285156 18.78125 -10.390625 C 18.914062 -10.492188 19.097656 -10.53125 19.328125 -10.5 L 24.015625 -10.28125 C 24.503906 -10.21875 24.75 -10.144531 24.75 -10.0625 L 24.75 -9.84375 C 24.75 -7.832031 24.273438 -6.050781 23.328125 -4.5 C 22.378906 -2.957031 21.050781 -1.765625 19.34375 -0.921875 C 17.644531 -0.078125 15.671875 0.34375 13.421875 0.34375 Z M 13.421875 0.34375 "/></g></g></g><g fill="#ffffff" fill-opacity="1"><g transform="translate(161.493512, 48.824894)"><g><path d="M 12.25 0.34375 C 9.769531 0.34375 7.65625 -0.296875 5.90625 -1.578125 C 4.15625 -2.859375 2.957031 -4.609375 2.3125 -6.828125 C 1.90625 -8.191406 1.703125 -9.675781 1.703125 -11.28125 C 1.703125 -13.0625 1.921875 -14.609375 2.359375 -15.921875 C 3.035156 -18.078125 4.238281 -19.765625 5.96875 -20.984375 C 7.707031 -22.210938 9.816406 -22.828125 12.296875 -22.828125 C 14.679688 -22.828125 16.726562 -22.210938 18.4375 -20.984375 C 20.144531 -19.765625 21.332031 -18.09375 22 -15.96875 C 22.4375 -14.625 22.65625 -13.09375 22.65625 -11.375 C 22.65625 -9.851562 22.460938 -8.378906 22.078125 -6.953125 C 21.410156 -4.679688 20.207031 -2.894531 18.46875 -1.59375 C 16.738281 -0.300781 14.664062 0.34375 12.25 0.34375 Z M 12.25 -4.9375 C 13.175781 -4.9375 13.972656 -5.226562 14.640625 -5.8125 C 15.316406 -6.394531 15.800781 -7.195312 16.09375 -8.21875 C 16.320312 -9.007812 16.4375 -10.03125 16.4375 -11.28125 C 16.4375 -12.507812 16.320312 -13.546875 16.09375 -14.390625 C 15.800781 -15.378906 15.316406 -16.148438 14.640625 -16.703125 C 13.972656 -17.253906 13.144531 -17.53125 12.15625 -17.53125 C 11.195312 -17.53125 10.378906 -17.253906 9.703125 -16.703125 C 9.035156 -16.148438 8.554688 -15.378906 8.265625 -14.390625 C 8.035156 -13.546875 7.921875 -12.507812 7.921875 -11.28125 C 7.921875 -10.082031 8.035156 -9.0625 8.265625 -8.21875 C 8.554688 -7.195312 9.046875 -6.394531 9.734375 -5.8125 C 10.421875 -5.226562 11.257812 -4.9375 12.25 -4.9375 Z M 12.25 -4.9375 "/></g></g></g><g fill="#ffffff" fill-opacity="1"><g transform="translate(185.855884, 48.824894)"><g><path d="M 13.46875 -22.78125 C 14.40625 -22.78125 15.175781 -22.609375 15.78125 -22.265625 C 16.132812 -22.085938 16.269531 -21.78125 16.1875 -21.34375 L 15.34375 -16.75 C 15.320312 -16.488281 15.242188 -16.328125 15.109375 -16.265625 C 14.972656 -16.210938 14.757812 -16.210938 14.46875 -16.265625 C 14.007812 -16.378906 13.585938 -16.4375 13.203125 -16.4375 C 13.003906 -16.4375 12.671875 -16.410156 12.203125 -16.359375 C 11.148438 -16.265625 10.257812 -15.875 9.53125 -15.1875 C 8.800781 -14.507812 8.4375 -13.601562 8.4375 -12.46875 L 8.4375 -0.75 C 8.4375 -0.25 8.191406 0 7.703125 0 L 3.015625 0 C 2.523438 0 2.28125 -0.25 2.28125 -0.75 L 2.28125 -21.734375 C 2.28125 -22.234375 2.523438 -22.484375 3.015625 -22.484375 L 7.703125 -22.484375 C 8.191406 -22.484375 8.4375 -22.234375 8.4375 -21.734375 L 8.4375 -20.375 C 8.4375 -20.257812 8.460938 -20.1875 8.515625 -20.15625 C 8.578125 -20.132812 8.65625 -20.164062 8.75 -20.25 C 9.914062 -21.9375 11.488281 -22.78125 13.46875 -22.78125 Z M 13.46875 -22.78125 "/></g></g></g><g fill="#ffffff" fill-opacity="1"><g transform="translate(202.607751, 48.824894)"><g><path d="M 12.25 0.34375 C 9.769531 0.34375 7.65625 -0.296875 5.90625 -1.578125 C 4.15625 -2.859375 2.957031 -4.609375 2.3125 -6.828125 C 1.90625 -8.191406 1.703125 -9.675781 1.703125 -11.28125 C 1.703125 -13.0625 1.921875 -14.609375 2.359375 -15.921875 C 3.035156 -18.078125 4.238281 -19.765625 5.96875 -20.984375 C 7.707031 -22.210938 9.816406 -22.828125 12.296875 -22.828125 C 14.679688 -22.828125 16.726562 -22.210938 18.4375 -20.984375 C 20.144531 -19.765625 21.332031 -18.09375 22 -15.96875 C 22.4375 -14.625 22.65625 -13.09375 22.65625 -11.375 C 22.65625 -9.851562 22.460938 -8.378906 22.078125 -6.953125 C 21.410156 -4.679688 20.207031 -2.894531 18.46875 -1.59375 C 16.738281 -0.300781 14.664062 0.34375 12.25 0.34375 Z M 12.25 -4.9375 C 13.175781 -4.9375 13.972656 -5.226562 14.640625 -5.8125 C 15.316406 -6.394531 15.800781 -7.195312 16.09375 -8.21875 C 16.320312 -9.007812 16.4375 -10.03125 16.4375 -11.28125 C 16.4375 -12.507812 16.320312 -13.546875 16.09375 -14.390625 C 15.800781 -15.378906 15.316406 -16.148438 14.640625 -16.703125 C 13.972656 -17.253906 13.144531 -17.53125 12.15625 -17.53125 C 11.195312 -17.53125 10.378906 -17.253906 9.703125 -16.703125 C 9.035156 -16.148438 8.554688 -15.378906 8.265625 -14.390625 C 8.035156 -13.546875 7.921875 -12.507812 7.921875 -11.28125 C 7.921875 -10.082031 8.035156 -9.0625 8.265625 -8.21875 C 8.554688 -7.195312 9.046875 -6.394531 9.734375 -5.8125 C 10.421875 -5.226562 11.257812 -4.9375 12.25 -4.9375 Z M 12.25 -4.9375 "/></g></g></g><g fill="#ffffff" fill-opacity="1"><g transform="translate(226.970122, 48.824894)"><g><path d="M 14 -22.828125 C 16.332031 -22.828125 18.210938 -22.113281 19.640625 -20.6875 C 21.066406 -19.257812 21.78125 -17.320312 21.78125 -14.875 L 21.78125 -0.75 C 21.78125 -0.25 21.53125 0 21.03125 0 L 16.359375 0 C 15.859375 0 15.609375 -0.25 15.609375 -0.75 L 15.609375 -13.59375 C 15.609375 -14.757812 15.285156 -15.707031 14.640625 -16.4375 C 14.003906 -17.164062 13.148438 -17.53125 12.078125 -17.53125 C 10.992188 -17.53125 10.113281 -17.164062 9.4375 -16.4375 C 8.769531 -15.707031 8.4375 -14.757812 8.4375 -13.59375 L 8.4375 -0.75 C 8.4375 -0.25 8.191406 0 7.703125 0 L 3.015625 0 C 2.523438 0 2.28125 -0.25 2.28125 -0.75 L 2.28125 -21.734375 C 2.28125 -22.234375 2.523438 -22.484375 3.015625 -22.484375 L 7.703125 -22.484375 C 8.191406 -22.484375 8.4375 -22.234375 8.4375 -21.734375 L 8.4375 -20.515625 C 8.4375 -20.398438 8.460938 -20.328125 8.515625 -20.296875 C 8.578125 -20.265625 8.640625 -20.289062 8.703125 -20.375 C 9.898438 -22.007812 11.664062 -22.828125 14 -22.828125 Z M 14 -22.828125 "/></g></g></g><g fill="#ffffff" fill-opacity="1"><g transform="translate(250.89511, 48.824894)"><g><path d="M 11.28125 -22.828125 C 13.175781 -22.828125 14.867188 -22.5 16.359375 -21.84375 C 17.847656 -21.1875 19.003906 -20.289062 19.828125 -19.15625 C 20.660156 -18.019531 21.078125 -16.75 21.078125 -15.34375 L 21.078125 -0.75 C 21.078125 -0.25 20.832031 0 20.34375 0 L 15.65625 0 C 15.15625 0 14.90625 -0.25 14.90625 -0.75 L 14.90625 -1.796875 C 14.90625 -1.910156 14.875 -1.972656 14.8125 -1.984375 C 14.757812 -2.003906 14.691406 -1.96875 14.609375 -1.875 C 13.265625 -0.394531 11.265625 0.34375 8.609375 0.34375 C 6.367188 0.34375 4.5625 -0.207031 3.1875 -1.3125 C 1.820312 -2.414062 1.140625 -4.046875 1.140625 -6.203125 C 1.140625 -8.453125 1.925781 -10.195312 3.5 -11.4375 C 5.070312 -12.675781 7.316406 -13.296875 10.234375 -13.296875 L 14.65625 -13.296875 C 14.820312 -13.296875 14.90625 -13.382812 14.90625 -13.5625 L 14.90625 -14.46875 C 14.90625 -15.4375 14.609375 -16.1875 14.015625 -16.71875 C 13.421875 -17.257812 12.554688 -17.53125 11.421875 -17.53125 C 10.546875 -17.53125 9.820312 -17.382812 9.25 -17.09375 C 8.675781 -16.800781 8.289062 -16.394531 8.09375 -15.875 C 7.914062 -15.46875 7.625 -15.28125 7.21875 -15.3125 L 2.359375 -15.921875 C 2.128906 -15.953125 1.945312 -16.015625 1.8125 -16.109375 C 1.6875 -16.210938 1.632812 -16.351562 1.65625 -16.53125 C 1.800781 -17.726562 2.300781 -18.804688 3.15625 -19.765625 C 4.019531 -20.734375 5.160156 -21.484375 6.578125 -22.015625 C 7.992188 -22.554688 9.5625 -22.828125 11.28125 -22.828125 Z M 10.40625 -4.25 C 11.664062 -4.25 12.726562 -4.582031 13.59375 -5.25 C 14.46875 -5.914062 14.90625 -6.773438 14.90625 -7.828125 L 14.90625 -9.359375 C 14.90625 -9.535156 14.820312 -9.625 14.65625 -9.625 L 11.546875 -9.625 C 10.234375 -9.625 9.195312 -9.375 8.4375 -8.875 C 7.675781 -8.382812 7.296875 -7.6875 7.296875 -6.78125 C 7.296875 -5.988281 7.582031 -5.367188 8.15625 -4.921875 C 8.726562 -4.472656 9.476562 -4.25 10.40625 -4.25 Z M 10.40625 -4.25 "/></g></g></g><g fill="#ffffff" fill-opacity="1"><g transform="translate(273.989072, 48.824894)"><g><path d="M 11.015625 0 C 10.609375 0 10.332031 -0.203125 10.1875 -0.609375 L 1.3125 -29.78125 C 1.28125 -29.84375 1.265625 -29.929688 1.265625 -30.046875 C 1.265625 -30.421875 1.484375 -30.609375 1.921875 -30.609375 L 7 -30.609375 C 7.40625 -30.609375 7.679688 -30.40625 7.828125 -30 L 13.5625 -8.921875 C 13.582031 -8.804688 13.632812 -8.75 13.71875 -8.75 C 13.8125 -8.75 13.875 -8.804688 13.90625 -8.921875 L 19.546875 -29.953125 C 19.691406 -30.390625 19.96875 -30.609375 20.375 -30.609375 L 25.328125 -30.609375 C 25.585938 -30.609375 25.773438 -30.53125 25.890625 -30.375 C 26.003906 -30.21875 26.019531 -30.019531 25.9375 -29.78125 L 16.921875 -0.609375 C 16.773438 -0.203125 16.5 0 16.09375 0 Z M 11.015625 0 "/></g></g></g><g fill="#ffffff" fill-opacity="1"><g transform="translate(301.194439, 48.824894)"><g><path d="M 5.6875 -24.625 C 4.582031 -24.625 3.675781 -24.960938 2.96875 -25.640625 C 2.269531 -26.328125 1.921875 -27.210938 1.921875 -28.296875 C 1.921875 -29.378906 2.269531 -30.257812 2.96875 -30.9375 C 3.675781 -31.625 4.582031 -31.96875 5.6875 -31.96875 C 6.820312 -31.96875 7.734375 -31.628906 8.421875 -30.953125 C 9.109375 -30.285156 9.453125 -29.398438 9.453125 -28.296875 C 9.453125 -27.191406 9.109375 -26.300781 8.421875 -25.625 C 7.734375 -24.957031 6.820312 -24.625 5.6875 -24.625 Z M 3.375 0 C 2.875 0 2.625 -0.25 2.625 -0.75 L 2.625 -21.734375 C 2.625 -22.234375 2.875 -22.484375 3.375 -22.484375 L 8.046875 -22.484375 C 8.546875 -22.484375 8.796875 -22.234375 8.796875 -21.734375 L 8.796875 -0.75 C 8.796875 -0.25 8.546875 0 8.046875 0 Z M 3.375 0 "/></g></g></g><g fill="#ffffff" fill-opacity="1"><g transform="translate(312.566468, 48.824894)"><g><path d="M 13.46875 -22.78125 C 14.40625 -22.78125 15.175781 -22.609375 15.78125 -22.265625 C 16.132812 -22.085938 16.269531 -21.78125 16.1875 -21.34375 L 15.34375 -16.75 C 15.320312 -16.488281 15.242188 -16.328125 15.109375 -16.265625 C 14.972656 -16.210938 14.757812 -16.210938 14.46875 -16.265625 C 14.007812 -16.378906 13.585938 -16.4375 13.203125 -16.4375 C 13.003906 -16.4375 12.671875 -16.410156 12.203125 -16.359375 C 11.148438 -16.265625 10.257812 -15.875 9.53125 -15.1875 C 8.800781 -14.507812 8.4375 -13.601562 8.4375 -12.46875 L 8.4375 -0.75 C 8.4375 -0.25 8.191406 0 7.703125 0 L 3.015625 0 C 2.523438 0 2.28125 -0.25 2.28125 -0.75 L 2.28125 -21.734375 C 2.28125 -22.234375 2.523438 -22.484375 3.015625 -22.484375 L 7.703125 -22.484375 C 8.191406 -22.484375 8.4375 -22.234375 8.4375 -21.734375 L 8.4375 -20.375 C 8.4375 -20.257812 8.460938 -20.1875 8.515625 -20.15625 C 8.578125 -20.132812 8.65625 -20.164062 8.75 -20.25 C 9.914062 -21.9375 11.488281 -22.78125 13.46875 -22.78125 Z M 13.46875 -22.78125 "/></g></g></g><g fill="#ffffff" fill-opacity="1"><g transform="translate(329.318346, 48.824894)"><g><path d="M 15.390625 -21.734375 C 15.390625 -22.234375 15.640625 -22.484375 16.140625 -22.484375 L 20.8125 -22.484375 C 21.3125 -22.484375 21.5625 -22.234375 21.5625 -21.734375 L 21.5625 -0.75 C 21.5625 -0.25 21.3125 0 20.8125 0 L 16.140625 0 C 15.640625 0 15.390625 -0.25 15.390625 -0.75 L 15.390625 -1.921875 C 15.390625 -2.035156 15.351562 -2.097656 15.28125 -2.109375 C 15.207031 -2.128906 15.144531 -2.097656 15.09375 -2.015625 C 13.945312 -0.460938 12.148438 0.3125 9.703125 0.3125 C 7.492188 0.3125 5.671875 -0.359375 4.234375 -1.703125 C 2.804688 -3.046875 2.09375 -4.925781 2.09375 -7.34375 L 2.09375 -21.734375 C 2.09375 -22.234375 2.34375 -22.484375 2.84375 -22.484375 L 7.484375 -22.484375 C 7.972656 -22.484375 8.21875 -22.234375 8.21875 -21.734375 L 8.21875 -8.875 C 8.21875 -7.707031 8.53125 -6.757812 9.15625 -6.03125 C 9.789062 -5.300781 10.660156 -4.9375 11.765625 -4.9375 C 12.753906 -4.9375 13.566406 -5.234375 14.203125 -5.828125 C 14.847656 -6.429688 15.242188 -7.210938 15.390625 -8.171875 Z M 15.390625 -21.734375 "/></g></g></g><g fill="#ffffff" fill-opacity="1"><g transform="translate(353.155856, 48.824894)"><g><path d="M 11.234375 0.3125 C 9.285156 0.3125 7.582031 0.0351562 6.125 -0.515625 C 4.664062 -1.078125 3.539062 -1.851562 2.75 -2.84375 C 1.96875 -3.832031 1.578125 -4.953125 1.578125 -6.203125 L 1.578125 -6.421875 C 1.578125 -6.921875 1.820312 -7.171875 2.3125 -7.171875 L 6.734375 -7.171875 C 7.234375 -7.171875 7.484375 -7.082031 7.484375 -6.90625 L 7.484375 -6.609375 C 7.484375 -5.960938 7.832031 -5.410156 8.53125 -4.953125 C 9.226562 -4.503906 10.117188 -4.28125 11.203125 -4.28125 C 12.191406 -4.28125 12.988281 -4.46875 13.59375 -4.84375 C 14.207031 -5.226562 14.515625 -5.726562 14.515625 -6.34375 C 14.515625 -6.863281 14.253906 -7.253906 13.734375 -7.515625 C 13.210938 -7.785156 12.351562 -8.066406 11.15625 -8.359375 C 9.726562 -8.734375 8.660156 -9.066406 7.953125 -9.359375 C 6.054688 -10.003906 4.554688 -10.789062 3.453125 -11.71875 C 2.347656 -12.65625 1.796875 -14 1.796875 -15.75 C 1.796875 -17.90625 2.640625 -19.613281 4.328125 -20.875 C 6.015625 -22.144531 8.234375 -22.78125 10.984375 -22.78125 C 12.847656 -22.78125 14.484375 -22.484375 15.890625 -21.890625 C 17.304688 -21.296875 18.398438 -20.457031 19.171875 -19.375 C 19.953125 -18.289062 20.34375 -17.066406 20.34375 -15.703125 C 20.34375 -15.554688 20.273438 -15.429688 20.140625 -15.328125 C 20.003906 -15.222656 19.820312 -15.171875 19.59375 -15.171875 L 15.3125 -15.171875 C 14.8125 -15.171875 14.5625 -15.257812 14.5625 -15.4375 L 14.5625 -15.703125 C 14.5625 -16.335938 14.238281 -16.875 13.59375 -17.3125 C 12.957031 -17.75 12.097656 -17.96875 11.015625 -17.96875 C 10.054688 -17.96875 9.265625 -17.789062 8.640625 -17.4375 C 8.015625 -17.09375 7.703125 -16.613281 7.703125 -16 C 7.703125 -15.414062 8 -14.976562 8.59375 -14.6875 C 9.1875 -14.394531 10.171875 -14.09375 11.546875 -13.78125 C 12.390625 -13.601562 13.207031 -13.382812 14 -13.125 C 16.09375 -12.507812 17.738281 -11.71875 18.9375 -10.75 C 20.132812 -9.789062 20.734375 -8.394531 20.734375 -6.5625 C 20.734375 -4.40625 19.867188 -2.71875 18.140625 -1.5 C 16.421875 -0.289062 14.117188 0.3125 11.234375 0.3125 Z M 11.234375 0.3125 "/></g></g></g></svg>